<?xml version="1.0" encoding="UTF-8"?>
<svg xmlns="http://www.w3.org/2000/svg" viewBox="0 0 410 404" width="410" height="404">
  <defs>
    <linearGradient id="g" x1="100%" y1="0%" x2="0%" y2="100%">
      <stop stop-color="#41D1FF" offset="0%"/>
      <stop stop-color="#BD34FE" offset="100%"/>
    </linearGradient>
    <linearGradient id="o" x1="100%" y1="0%" x2="0%" y2="100%">
      <stop stop-color="#FFEA83" offset="0%"/>
      <stop stop-color="#FFDD35" offset="8.333%"/>
      <stop stop-color="#FFA800" offset="100%"/>
    </linearGradient>
  </defs>
  <path d="M399.641 59.525L215.643 388.545c-3.047 5.428-10.86 5.404-13.873-.043L10.522 59.525c-3.228-5.753 1.658-12.741 8.087-11.43l186.488 37.66a8 8 0 0 0 3.093-.002l183.361-37.652c6.409-1.317 11.3 5.632 8.1 11.39z" fill="url(#g)"/>
  <path d="M292.965 1.046L156.945 28.19c-4.5.91-7.78 4.84-8.01 9.42l-8.31 158.92a8 8 0 0 0 9.73 8.29l38.59-7.64c5.18-1.03 9.79 3.4 8.67 8.55l-11.47 52.93c-1.12 5.16 3.49 9.59 8.67 8.56l23.79-4.64c5.17-1.01 9.78 3.42 8.66 8.57l-18.2 84.06c-1.53 7.05 8.24 10.46 11.95 4.5l1.26-2.02l112.03-199.24c2.64-4.69-.86-10.47-6.2-9.41l-39.68 7.86c-5.18 1.03-9.79-3.4-8.67-8.55l25.22-116.37c1.12-5.16-3.49-9.59-8.67-8.56z" fill="url(#o)"/>
</svg>

